<svg width="1094" height="510" viewBox="0 0 1094 510" fill="none" xmlns="http://www.w3.org/2000/svg">
<path d="M230.302 0.0447489C235.126 0.039522 239.949 0.0290483 244.772 0.0161135C339.962 -0.229338 439.768 0.706406 694.096 127.199C697.988 129.913 701.884 132.621 705.78 135.328C715.566 142.13 725.339 148.95 735.098 155.791C738.415 158.115 741.735 160.435 745.059 162.751C753.857 168.889 762.603 175.087 771.277 181.398C776.659 185.297 782.123 189.06 787.625 192.787C794.211 197.249 800.617 201.882 806.942 206.705C812.017 210.549 817.226 214.16 822.5 217.724C829.131 222.205 835.579 226.853 841.941 231.705C847.017 235.549 852.226 239.16 857.5 242.724C864.172 247.235 870.675 251.905 877.086 256.777C881.783 260.337 886.55 263.778 891.375 267.162C905.773 277.263 919.971 287.616 934 298.224C931.947 307.325 921.229 313.255 913.808 318.123C901.662 325.521 887.138 327.421 873.305 324.423C848.036 315.893 825.468 298.548 804 283.224C802.758 282.342 801.516 281.461 800.273 280.58C796.84 278.14 793.419 275.684 790 273.224C789.328 272.742 788.656 272.259 787.964 271.762C777.048 263.916 766.202 255.979 755.391 247.99C751.43 245.065 747.465 242.145 743.5 239.224C741.917 238.057 740.333 236.891 738.75 235.724C737.966 235.147 737.183 234.569 736.375 233.974C729.25 228.724 729.25 228.724 726.875 226.974C725.292 225.808 723.71 224.642 722.127 223.476C718.154 220.55 714.183 217.621 710.215 214.689C700.266 207.341 690.272 200.059 680.234 192.833C677.238 190.675 674.245 188.513 671.252 186.351C669.753 185.268 668.254 184.185 666.754 183.103C662.975 180.376 659.2 177.644 655.43 174.904C647.152 168.894 638.819 162.988 630.371 157.22C626.165 154.345 621.984 151.433 617.805 148.518C591.698 130.308 565.49 112.302 538 96.2241C537.195 95.7494 536.39 95.2747 535.56 94.7856C470.22 56.3381 398.096 28.7613 322.438 20.4741C321.401 20.3583 320.364 20.2424 319.295 20.123C296.985 17.9117 274.433 18.0839 252.04 18.1616C249.375 18.1668 246.711 18.1715 244.047 18.1754C239.824 18.182 235.601 18.1891 231.378 18.1986C220.962 18.222 210.546 18.2287 200.131 18.2258C199.372 18.2256 198.613 18.2255 197.831 18.2253C191.599 18.2237 185.368 18.2216 179.137 18.2194C173.569 18.2175 168.001 18.2162 162.434 18.2158C161.244 18.2157 161.244 18.2157 160.03 18.2156C147.113 18.2155 134.195 18.2443 121.278 18.2826C107.963 18.3212 94.6485 18.3257 81.3337 18.2993C73.1444 18.2841 64.956 18.296 56.7667 18.3429C50.5113 18.376 44.2567 18.362 38.0012 18.3302C35.4365 18.3246 32.8717 18.3345 30.3071 18.3609C26.8103 18.3946 23.318 18.3731 19.8213 18.3376C18.2945 18.3722 18.2945 18.3722 16.7369 18.4074C10.0336 18.2589 10.0336 18.2589 7.0672 15.289C4.0728 10.9059 1.89457 6.17105 0 1.22412C1.09292 1.22634 2.18585 1.22856 3.31189 1.23085C68.8149 1.40838 68.8149 1.40838 134.312 0.724121C166.307 0.16922 198.303 0.0766968 230.302 0.0447489Z" fill="#006298"/>
<path d="M598 150.224C598.902 150.759 599.804 151.294 600.733 151.845C612.539 158.889 623.792 166.48 634.846 174.646C638.362 177.222 641.931 179.721 645.5 182.224C652.198 186.933 658.848 191.707 665.48 196.509C669.976 199.764 674.48 203.004 679 206.224C686.587 211.632 694.136 217.091 701.686 222.551C705.456 225.277 709.228 228 713 230.724C714.5 231.807 716 232.891 717.5 233.974C718.243 234.51 718.985 235.047 719.75 235.599C728 241.557 736.25 247.516 744.5 253.474C745.242 254.01 745.985 254.546 746.75 255.099C748.251 256.183 749.751 257.267 751.252 258.351C754.988 261.05 758.725 263.747 762.465 266.439C770.979 272.572 779.452 278.756 787.892 284.991C796.215 291.133 804.604 297.182 813 303.224C822.994 310.416 832.967 317.634 842.855 324.971C846.924 327.985 851.016 330.953 855.164 333.857C855.996 334.443 856.828 335.03 857.686 335.634C859.277 336.753 860.874 337.863 862.479 338.962C863.189 339.464 863.9 339.965 864.633 340.482C865.575 341.134 865.575 341.134 866.536 341.799C868.34 343.555 868.741 344.736 869 347.224C861.069 358.975 843.515 368.282 830 371.224C818.953 372.155 808.156 372.024 798 367.224C797.14 366.823 796.28 366.422 795.395 366.009C786.75 361.604 778.911 355.802 771 350.224C769.61 349.25 768.219 348.276 766.828 347.302C758.745 341.631 750.727 335.873 742.731 330.08C737.68 326.424 732.601 322.811 727.5 319.224C720.871 314.563 714.293 309.835 707.73 305.08C702.679 301.424 697.6 297.81 692.5 294.224C685.871 289.563 679.293 284.835 672.73 280.08C667.679 276.424 662.6 272.81 657.5 269.224C650.871 264.563 644.293 259.835 637.73 255.08C632.679 251.424 627.6 247.81 622.5 244.224C615.871 239.563 609.293 234.835 602.73 230.08C596.982 225.92 591.193 221.82 585.388 217.739C580.291 214.15 575.234 210.509 570.188 206.849C540.957 185.692 511.237 166.501 479 150.224C478.072 149.755 477.144 149.285 476.188 148.802C417.761 119.48 350.119 100.791 284.52 99.8967C283.099 99.875 281.679 99.8531 280.258 99.8311C276.402 99.7732 272.545 99.7221 268.689 99.6732C266.232 99.6417 263.775 99.6085 261.317 99.575C237.048 99.2496 212.787 99.2097 188.516 99.3543C182.078 99.392 175.639 99.4177 169.201 99.4352C167.831 99.439 167.831 99.439 166.435 99.4429C162.745 99.4528 159.055 99.4623 155.365 99.4703C145.022 99.4928 134.679 99.5405 124.336 99.6525C115.889 99.7438 107.442 99.7859 98.994 99.7697C94.5854 99.763 90.1801 99.7802 85.7721 99.8589C81.687 99.9315 77.6069 99.9386 73.5214 99.8957C72.035 99.8915 70.5483 99.9111 69.0626 99.9569C58.1898 100.273 58.1898 100.273 54.481 96.8029C51.3286 92.9492 47 87.3312 47 82.2241C57.8019 81.3842 68.548 81.0244 79.3789 80.9076C81.0484 80.8868 82.718 80.8657 84.3875 80.8444C88.8517 80.7888 93.3159 80.7391 97.7802 80.6914C100.586 80.6613 103.391 80.63 106.196 80.5984C197.36 79.5807 289.069 78.5861 598 150.224Z" fill="#006298"/>
<path d="M95 166.224C125.854 166.155 156.707 166.103 187.561 166.071C191.225 166.067 194.888 166.063 198.552 166.06C199.281 166.059 200.011 166.058 200.762 166.057C212.484 166.044 224.206 166.021 235.928 165.993C248.006 165.965 260.084 165.948 272.162 165.942C278.925 165.938 285.687 165.929 292.45 165.907C327.718 165.796 362.606 166.214 397.5 171.912C398.285 172.036 399.071 172.16 399.88 172.289C417.766 175.13 435.41 178.937 453 183.224C454.265 183.531 455.53 183.837 456.833 184.153C506.429 196.339 552.727 213.867 596 241.224C596.73 241.685 597.461 242.145 598.213 242.62C617.771 255.004 637.006 267.994 656 281.224C657.144 282.019 657.144 282.019 658.312 282.831C668.081 289.622 677.794 296.484 687.424 303.472C692.398 307.079 697.407 310.633 702.438 314.162C710.924 320.125 719.268 326.275 727.602 332.451C729.959 334.194 732.322 335.929 734.688 337.662C743.921 344.429 753.067 351.299 762.157 358.258C767.953 362.688 773.799 367.042 779.688 371.349C788.94 378.119 797.991 385.135 807 392.224C799.886 403.865 786.052 411.634 773.164 415.322C753.524 419.605 734.292 416.075 717.25 405.224C709.659 400.227 702.512 394.622 695.345 389.043C691.168 385.804 686.957 382.611 682.75 379.412C677.324 375.282 671.9 371.15 666.488 367.002C658.481 360.87 650.477 354.757 642.236 348.943C637.357 345.499 632.551 341.962 627.75 338.412C580.774 303.725 532.376 270.648 481.961 241.142C478.989 239.402 476.033 237.645 473.102 235.838C421.4 203.967 362.4 187.312 302.103 182.587C300.858 182.489 300.858 182.489 299.588 182.389C281.173 180.982 262.83 180.934 244.372 181.119C238.62 181.175 232.868 181.195 227.116 181.209C225.122 181.214 223.129 181.219 221.135 181.224C220.14 181.226 219.145 181.229 218.12 181.232C204.799 181.268 191.479 181.334 178.159 181.467C169.066 181.558 159.973 181.603 150.879 181.594C146.098 181.592 141.32 181.613 136.539 181.692C132.071 181.766 127.606 181.779 123.138 181.746C121.506 181.745 119.874 181.766 118.243 181.811C106.25 182.125 106.25 182.125 102.423 178.892C99.7588 175.896 95 170.399 95 166.224Z" fill="#006298"/>
<path d="M143 246.224C260.884 245.783 260.884 245.783 312 248.224C313.104 248.275 314.207 248.326 315.345 248.378C355.261 250.223 395.915 252.407 435 261.224C435.914 261.426 436.828 261.627 437.77 261.834C454.45 265.594 470.507 271.325 486.612 276.995C491.131 278.582 495.664 280.119 500.215 281.615C523.764 289.394 544.835 300.388 566 313.224C567.104 313.892 568.208 314.56 569.346 315.248C581.5 322.618 593.576 330.075 605.32 338.084C607.667 339.677 610.032 341.241 612.396 342.808C628.785 353.674 644.917 364.913 661 376.224C661.74 376.744 662.48 377.263 663.242 377.798C679.848 389.459 696.259 401.377 712.578 413.436C715.05 415.261 717.525 417.083 720 418.904C728.698 425.303 737.38 431.72 746 438.224C744.958 444.576 739.363 448.468 734.445 452.123C719.203 462.24 702.979 466.184 684.844 463.103C666.845 458.988 652.811 451.265 638.426 439.88C634.653 436.916 630.743 434.162 626.812 431.412C620.865 427.245 614.945 423.044 609.062 418.787C608.317 418.247 607.571 417.707 606.802 417.151C605.29 416.056 603.778 414.961 602.266 413.865C598.514 411.148 594.757 408.436 591 405.724C589.5 404.641 588 403.557 586.5 402.474C585.757 401.938 585.015 401.402 584.25 400.849C559.5 382.974 559.5 382.974 557.251 381.35C555.747 380.264 554.242 379.178 552.737 378.093C549.052 375.435 545.374 372.768 541.711 370.08C493.707 334.937 441.385 302.855 385 283.224C384.185 282.938 383.371 282.653 382.532 282.358C360.593 274.765 338.086 270.348 315 268.224C313.944 268.126 312.887 268.029 311.799 267.928C291.898 266.136 271.974 265.166 252 264.724C250.731 264.695 250.731 264.695 249.437 264.665C216.631 263.914 183.812 263.619 151 263.224C149.662 260.768 148.329 258.31 147 255.849C146.618 255.15 146.237 254.452 145.844 253.732C143 248.451 143 248.451 143 246.224Z" fill="#006298"/>
<path d="M189 327.224C200.469 327.177 211.939 327.142 223.408 327.12C228.739 327.11 234.069 327.096 239.399 327.073C273.434 326.929 307.3 327.621 341.188 331.037C342.472 331.163 342.472 331.163 343.782 331.292C433.383 340.164 511.325 364.441 592.233 419.028C593.83 420.109 595.429 421.188 597.028 422.267C607.757 429.506 618.301 436.978 628.762 444.599C631.012 446.233 633.27 447.855 635.531 449.474C645.842 456.863 655.964 464.467 666 472.224C667.886 473.679 669.772 475.134 671.659 476.589C673.261 477.823 674.861 479.061 676.461 480.298C678.264 481.666 680.117 482.969 682 484.224C678.821 493.615 669.224 499.013 660.809 503.458C644.281 511.531 626.35 510.637 609.207 504.97C600.67 501.872 593.328 497.57 586 492.224C584.63 491.241 583.258 490.26 581.887 489.279C578.03 486.512 574.189 483.726 570.351 480.934C566.551 478.17 562.745 475.415 558.938 472.662C558.193 472.123 557.448 471.585 556.681 471.03C551.644 467.394 546.581 463.798 541.5 460.224C531.861 453.443 522.315 446.535 512.778 439.611C481.984 417.255 450.775 394.91 417 377.224C415.672 376.523 415.672 376.523 414.318 375.807C366.655 350.922 317.576 345.482 264.607 344.781C260.493 344.725 256.381 344.655 252.268 344.583C236.464 344.291 236.464 344.291 220.658 344.243C218.403 344.255 216.149 344.25 213.894 344.238C211.396 344.229 208.898 344.253 206.401 344.32C199.033 344.244 199.033 344.244 196.007 341.257C194.453 338.972 193.201 336.709 192 334.224C191.381 333.255 190.762 332.285 190.125 331.287C189 329.224 189 329.224 189 327.224Z" fill="#006298"/>
<path d="M797.383 158.81C800 159.224 800 159.224 801.992 161.201C802.614 162.075 803.235 162.949 803.875 163.849C812.776 175.557 823.531 180.02 838 182.224C841.655 182.477 845.29 182.482 848.953 182.455C849.99 182.454 851.026 182.454 852.094 182.454C855.48 182.451 858.865 182.432 862.25 182.412C864.635 182.405 867.02 182.398 869.405 182.392C884.358 182.337 899.302 182.093 914.25 181.724C929.715 181.346 945.177 181.063 960.646 180.992C962.819 180.98 964.993 180.963 967.166 180.941C970.182 180.911 973.198 180.901 976.215 180.896C977.104 180.884 977.994 180.871 978.91 180.859C985.563 180.882 989.878 182.366 995.625 185.787C1002.25 192.583 1003.95 201.069 1005 210.224C1006.84 210.28 1006.84 210.28 1008.71 210.337C1067.39 212.444 1067.39 212.444 1082.96 228.869C1091.23 238.41 1093.53 248.032 1093.3 260.572C1092.9 265.409 1091.78 269.721 1090 274.224C1086.68 274.617 1085.39 274.531 1082.71 272.431C1081.55 271.246 1081.55 271.246 1080.38 270.037C1067.67 257.956 1053.37 258.654 1036.82 258.992C1014.19 259.647 992.338 266.003 972.753 277.225C954.431 287.672 954.431 287.672 944.434 285.724C936.684 283.378 930.595 278.617 924.198 273.837C919.822 270.625 915.339 267.563 910.875 264.474C908.88 263.089 906.885 261.704 904.891 260.318C903.905 259.633 902.92 258.949 901.904 258.244C894.255 252.925 886.626 247.577 879 242.224C878.266 241.709 877.532 241.194 876.775 240.663C868.089 234.564 859.462 228.391 850.875 222.152C845.441 218.222 839.928 214.422 834.375 210.662C826.344 205.218 818.533 199.528 810.841 193.616C809.536 192.63 808.215 191.665 806.884 190.715C799.036 185.073 794.592 177.526 792 168.224C792.414 159.674 792.414 159.674 797.383 158.81ZM948 207.224C951.382 210.668 954.834 213.958 958.5 217.099C959.418 217.901 960.336 218.703 961.281 219.529C963.808 221.497 963.808 221.497 966.38 220.946C968.911 220.249 971.232 219.41 973.645 218.376C974.906 217.84 974.906 217.84 976.193 217.292C977.058 216.919 977.922 216.546 978.812 216.162C979.696 215.785 980.58 215.408 981.49 215.019C983.662 214.092 985.832 213.16 988 212.224C987.505 211.234 987.505 211.234 987 210.224C983.91 209.656 983.91 209.656 980.148 209.373C979.456 209.309 978.764 209.245 978.051 209.179C976.58 209.046 975.109 208.917 973.637 208.792C971.404 208.602 969.173 208.399 966.941 208.193C960.612 207.625 954.361 207.147 948 207.224Z" fill="#006298"/>
</svg>
