<svg width="2744" height="577" viewBox="0 0 2744 577" fill="none" xmlns="http://www.w3.org/2000/svg">
<g clip-path="url(#clip0_33_123)">
<path d="M230.302 -0.17986C235.126 -0.185087 239.949 -0.195561 244.772 -0.208496C339.962 -0.453948 439.768 0.481796 694.096 126.975C697.988 129.688 701.884 132.396 705.78 135.104C715.566 141.906 725.339 148.726 735.098 155.566C738.415 157.891 741.735 160.211 745.059 162.527C753.857 168.664 762.603 174.862 771.277 181.173C776.659 185.072 782.123 188.836 787.625 192.562C794.211 197.024 800.617 201.657 806.942 206.48C812.017 210.325 817.226 213.935 822.5 217.5C829.131 221.98 835.579 226.628 841.941 231.48C847.017 235.324 852.226 238.935 857.5 242.5C864.172 247.01 870.675 251.68 877.086 256.552C881.783 260.113 886.55 263.553 891.375 266.937C905.773 277.039 919.971 287.391 934 298C931.947 307.1 921.229 313.03 913.808 317.898C901.662 325.297 887.138 327.196 873.305 324.199C848.036 315.668 825.468 298.323 804 283C802.758 282.118 801.516 281.236 800.273 280.355C796.84 277.915 793.419 275.459 790 273C789.328 272.517 788.656 272.034 787.964 271.537C777.048 263.692 766.202 255.755 755.391 247.766C751.43 244.84 747.465 241.92 743.5 239C741.917 237.833 740.333 236.666 738.75 235.5C737.966 234.922 737.183 234.345 736.375 233.75C729.25 228.5 729.25 228.5 726.875 226.749C725.292 225.583 723.71 224.417 722.127 223.252C718.154 220.325 714.183 217.397 710.215 214.464C700.266 207.116 690.272 199.834 680.234 192.608C677.238 190.451 674.245 188.289 671.252 186.126C669.753 185.043 668.254 183.961 666.754 182.879C662.975 180.151 659.2 177.419 655.43 174.679C647.152 168.669 638.819 162.764 630.371 156.996C626.165 154.12 621.984 151.208 617.805 148.293C591.698 130.084 565.49 112.077 538 95.9995C537.195 95.5248 536.39 95.0501 535.56 94.561C470.22 56.1135 398.096 28.5367 322.438 20.2495C321.401 20.1337 320.364 20.0178 319.295 19.8984C296.985 17.6871 274.433 17.8593 252.04 17.937C249.375 17.9422 246.711 17.9469 244.047 17.9508C239.824 17.9574 235.601 17.9645 231.378 17.974C220.962 17.9974 210.546 18.0041 200.131 18.0012C199.372 18.001 198.613 18.0009 197.831 18.0007C191.599 17.9991 185.368 17.997 179.137 17.9948C173.569 17.9929 168.001 17.9916 162.434 17.9912C161.244 17.9911 161.244 17.9911 160.03 17.991C147.113 17.9909 134.195 18.0197 121.278 18.0579C107.963 18.0966 94.6485 18.1011 81.3337 18.0747C73.1444 18.0595 64.956 18.0714 56.7667 18.1183C50.5113 18.1514 44.2567 18.1373 38.0012 18.1056C35.4365 18.1 32.8717 18.1099 30.3071 18.1363C26.8103 18.1699 23.318 18.1485 19.8213 18.113C18.2945 18.1475 18.2945 18.1475 16.7369 18.1828C10.0336 18.0343 10.0336 18.0343 7.0672 15.0644C4.0728 10.6813 1.89457 5.94644 0 0.999512C1.09292 1.00173 2.18585 1.00395 3.31189 1.00624C68.8149 1.18378 68.8149 1.18378 134.312 0.499512C166.307 -0.0553892 198.303 -0.147913 230.302 -0.17986Z" fill="white"/>
<path d="M598 150C598.902 150.535 599.804 151.07 600.733 151.621C612.539 158.666 623.792 166.256 634.846 174.423C638.362 176.998 641.931 179.498 645.5 182C652.198 186.71 658.848 191.484 665.48 196.286C669.976 199.54 674.48 202.78 679 206C686.587 211.408 694.136 216.868 701.686 222.327C705.456 225.053 709.228 227.777 713 230.5C714.5 231.584 716 232.667 717.5 233.75C718.243 234.287 718.985 234.823 719.75 235.375C728 241.334 736.25 247.292 744.5 253.25C745.242 253.787 745.985 254.323 746.75 254.875C748.251 255.959 749.751 257.043 751.252 258.128C754.988 260.826 758.725 263.523 762.465 266.215C770.979 272.348 779.452 278.533 787.892 284.768C796.215 290.91 804.604 296.958 813 303C822.994 310.193 832.967 317.41 842.855 324.748C846.924 327.761 851.016 330.729 855.164 333.633C855.996 334.22 856.828 334.806 857.686 335.411C859.277 336.529 860.874 337.639 862.479 338.739C863.189 339.24 863.9 339.742 864.633 340.258C865.575 340.91 865.575 340.91 866.536 341.575C868.34 343.332 868.741 344.513 869 347C861.069 358.751 843.515 368.058 830 371C818.953 371.932 808.156 371.8 798 367C797.14 366.6 796.28 366.199 795.395 365.786C786.75 361.38 778.911 355.578 771 350C769.61 349.026 768.219 348.052 766.828 347.079C758.745 341.407 750.727 335.65 742.731 329.856C737.68 326.201 732.601 322.587 727.5 319C720.871 314.339 714.293 309.611 707.73 304.856C702.679 301.2 697.6 297.587 692.5 294C685.871 289.339 679.293 284.611 672.73 279.856C667.679 276.2 662.6 272.587 657.5 269C650.871 264.339 644.293 259.611 637.73 254.856C632.679 251.2 627.6 247.587 622.5 244C615.871 239.339 609.293 234.611 602.73 229.856C596.982 225.696 591.193 221.597 585.388 217.516C580.291 213.926 575.234 210.286 570.188 206.625C540.957 185.469 511.237 166.278 479 150C478.072 149.531 477.144 149.062 476.188 148.578C417.761 119.257 350.119 100.567 284.52 99.673C283.099 99.6514 281.679 99.6295 280.258 99.6075C276.402 99.5496 272.545 99.4985 268.689 99.4495C266.232 99.4181 263.775 99.3848 261.317 99.3514C237.048 99.026 212.787 98.986 188.516 99.1306C182.078 99.1684 175.639 99.194 169.201 99.2116C167.831 99.2154 167.831 99.2154 166.435 99.2192C162.745 99.2292 159.055 99.2387 155.365 99.2466C145.022 99.2691 134.679 99.3169 124.336 99.4289C115.889 99.5202 107.442 99.5623 98.994 99.546C94.5854 99.5394 90.1801 99.5566 85.7721 99.6353C81.687 99.7078 77.6069 99.715 73.5214 99.672C72.035 99.6679 70.5483 99.6874 69.0626 99.7332C58.1898 100.049 58.1898 100.049 54.481 96.5793C51.3286 92.7256 47 87.1076 47 82.0004C57.8019 81.1605 68.548 80.8008 79.3789 80.684C81.0484 80.6632 82.718 80.6421 84.3875 80.6208C88.8517 80.5652 93.3159 80.5155 97.7802 80.4678C100.586 80.4377 103.391 80.4063 106.196 80.3748C197.36 79.3571 289.069 78.3625 598 150Z" fill="white"/>
<path d="M95 166C125.854 165.931 156.707 165.878 187.561 165.847C191.225 165.843 194.888 165.839 198.552 165.835C199.281 165.835 200.011 165.834 200.762 165.833C212.484 165.82 224.206 165.796 235.928 165.769C248.006 165.74 260.084 165.724 272.162 165.718C278.925 165.714 285.687 165.705 292.45 165.683C327.718 165.572 362.606 165.99 397.5 171.688C398.285 171.812 399.071 171.936 399.88 172.064C417.766 174.906 435.41 178.713 453 183C454.265 183.306 455.53 183.613 456.833 183.928C506.429 196.115 552.727 213.643 596 241C596.73 241.461 597.461 241.921 598.213 242.396C617.771 254.78 637.006 267.77 656 281C657.144 281.795 657.144 281.795 658.312 282.607C668.081 289.398 677.794 296.26 687.424 303.248C692.398 306.855 697.407 310.409 702.438 313.938C710.924 319.901 719.268 326.051 727.602 332.227C729.959 333.97 732.322 335.705 734.688 337.438C743.921 344.205 753.067 351.075 762.157 358.034C767.953 362.464 773.799 366.818 779.688 371.125C788.94 377.895 797.991 384.911 807 392C799.886 403.64 786.052 411.41 773.164 415.098C753.524 419.38 734.292 415.851 717.25 405C709.659 400.003 702.512 394.398 695.345 388.819C691.168 385.58 686.957 382.387 682.75 379.188C677.324 375.058 671.9 370.926 666.488 366.778C658.481 360.646 650.477 354.533 642.236 348.719C637.357 345.275 632.551 341.738 627.75 338.188C580.774 303.501 532.376 270.424 481.961 240.918C478.989 239.178 476.033 237.421 473.102 235.613C421.4 203.742 362.4 187.088 302.103 182.363C300.858 182.265 300.858 182.265 299.588 182.165C281.173 180.757 262.83 180.71 244.372 180.895C238.62 180.951 232.868 180.971 227.116 180.985C225.122 180.99 223.129 180.995 221.135 181C220.14 181.002 219.145 181.005 218.12 181.007C204.799 181.044 191.479 181.11 178.159 181.243C169.066 181.334 159.973 181.378 150.879 181.37C146.098 181.368 141.32 181.389 136.539 181.468C132.071 181.542 127.606 181.555 123.138 181.522C121.506 181.521 119.874 181.542 118.243 181.587C106.25 181.901 106.25 181.901 102.423 178.668C99.7588 175.672 95 170.175 95 166Z" fill="white"/>
<path d="M143 246C260.884 245.559 260.884 245.559 312 248C313.104 248.051 314.207 248.102 315.345 248.154C355.261 249.999 395.915 252.183 435 261C435.914 261.201 436.828 261.403 437.77 261.61C454.45 265.37 470.507 271.101 486.612 276.77C491.131 278.358 495.664 279.895 500.215 281.391C523.764 289.17 544.835 300.164 566 313C567.104 313.668 568.208 314.336 569.346 315.024C581.5 322.394 593.576 329.85 605.32 337.86C607.667 339.452 610.032 341.017 612.396 342.583C628.785 353.45 644.917 364.689 661 376C661.74 376.519 662.48 377.039 663.242 377.574C679.848 389.235 696.259 401.153 712.578 413.212C715.05 415.037 717.525 416.859 720 418.68C728.698 425.079 737.38 431.496 746 438C744.958 444.351 739.363 448.244 734.445 451.898C719.203 462.016 702.979 465.96 684.844 462.879C666.845 458.763 652.811 451.041 638.426 439.656C634.653 436.692 630.743 433.937 626.812 431.188C620.865 427.021 614.945 422.82 609.062 418.562C608.317 418.023 607.571 417.483 606.802 416.927C605.29 415.832 603.778 414.736 602.266 413.641C598.514 410.924 594.757 408.212 591 405.5C589.5 404.417 588 403.333 586.5 402.25C585.757 401.714 585.015 401.178 584.25 400.625C559.5 382.75 559.5 382.75 557.251 381.126C555.747 380.039 554.242 378.954 552.737 377.868C549.052 375.211 545.374 372.544 541.711 369.855C493.707 334.713 441.385 302.631 385 283C384.185 282.714 383.371 282.429 382.532 282.134C360.593 274.541 338.086 270.124 315 268C313.944 267.902 312.887 267.805 311.799 267.704C291.898 265.912 271.974 264.942 252 264.5C250.731 264.471 250.731 264.471 249.437 264.441C216.631 263.69 183.812 263.395 151 263C149.662 260.544 148.329 258.086 147 255.625C146.618 254.926 146.237 254.228 145.844 253.508C143 248.227 143 248.227 143 246Z" fill="white"/>
<path d="M1528 158C1540.54 158 1553.08 158 1566 158C1567.99 171.061 1569.97 184.121 1571.95 197.183C1572.87 203.253 1573.79 209.323 1574.71 215.393C1578.42 239.775 1582.09 264.159 1585.44 288.594C1585.56 289.491 1585.68 290.389 1585.81 291.313C1587.62 304.514 1589.14 317.699 1590 331C1590.41 330.128 1590.41 330.128 1590.82 329.238C1604.5 299.929 1620.67 272.068 1637.38 244.391C1642.46 235.948 1647.4 227.424 1652.3 218.876C1655.51 213.3 1658.73 207.739 1662.01 202.203C1662.67 201.074 1663.34 199.945 1664.03 198.782C1665.38 196.519 1666.75 194.266 1668.14 192.025C1671.56 186.452 1674.47 181.087 1676.79 174.965C1682.14 161.858 1682.14 161.858 1688 158C1699.93 154.477 1713.85 156.584 1726 158C1726.11 163.644 1725.74 168.984 1724.94 174.566C1724.83 175.391 1724.72 176.216 1724.6 177.066C1724.22 179.81 1723.83 182.553 1723.45 185.296C1723.17 187.271 1722.9 189.246 1722.62 191.221C1721.88 196.571 1721.13 201.919 1720.38 207.267C1719.59 212.866 1718.81 218.466 1718.03 224.066C1716.72 233.465 1715.41 242.863 1714.09 252.261C1712.57 263.13 1711.05 274 1709.54 284.871C1707.92 296.444 1706.31 308.016 1704.69 319.589C1704.22 322.925 1703.76 326.261 1703.29 329.597C1702.56 334.834 1701.83 340.071 1701.09 345.307C1700.82 347.231 1700.55 349.155 1700.29 351.079C1699.92 353.7 1699.55 356.321 1699.18 358.942C1699.08 359.707 1698.97 360.472 1698.86 361.26C1698.39 364.578 1697.81 367.744 1697 371C1687.43 371 1677.86 371 1668 371C1670.18 355.451 1672.37 339.904 1674.57 324.358C1675.6 317.133 1676.62 309.907 1677.63 302.681C1678.81 294.3 1679.99 285.921 1681.18 277.543C1681.28 276.856 1681.38 276.169 1681.48 275.461C1684.65 253.238 1688.25 231.115 1692.29 209.03C1692.47 208.027 1692.65 207.024 1692.84 205.99C1693.18 204.135 1693.53 202.28 1693.87 200.426C1694.02 199.617 1694.17 198.807 1694.33 197.972C1694.46 197.272 1694.59 196.573 1694.72 195.852C1695.07 193.818 1695.07 193.818 1695 191C1694.49 192.001 1693.99 193.001 1693.46 194.032C1684.19 212.293 1674.91 230.505 1664.61 248.218C1662.86 251.236 1661.13 254.264 1659.4 257.293C1652.61 269.148 1645.69 280.911 1638.63 292.605C1634.16 300.02 1629.81 307.492 1625.5 315C1619.88 324.803 1614.21 334.577 1608.25 344.184C1604.96 349.529 1602.05 354.723 1599.82 360.604C1596.27 367.524 1596.27 367.524 1593 370C1588.86 370.863 1584.86 370.657 1580.65 370.434C1579.53 370.403 1578.41 370.371 1577.26 370.339C1574.5 370.257 1571.75 370.144 1569 370C1566.86 356.011 1564.73 342.02 1562.61 328.028C1561.62 321.526 1560.64 315.024 1559.64 308.523C1553.62 269.149 1547.78 229.76 1545 190C1544.82 190.712 1544.65 191.424 1544.46 192.157C1533.19 237.544 1521.23 282.711 1508.68 327.761C1506.64 335.082 1504.61 342.406 1502.61 349.738C1502.23 351.111 1501.86 352.485 1501.48 353.858C1500.79 356.406 1500.09 358.955 1499.4 361.505C1499.1 362.616 1498.8 363.728 1498.48 364.873C1498.09 366.331 1498.09 366.331 1497.68 367.818C1497 370 1497 370 1496 371C1493.93 371.088 1491.85 371.107 1489.78 371.098C1488.64 371.095 1487.51 371.093 1486.34 371.09C1484.87 371.081 1483.4 371.072 1481.94 371.063C1479.45 371.051 1476.97 371.04 1474.48 371.029C1472.32 371.02 1470.16 371.01 1468 371C1473.82 348.667 1480.09 326.473 1486.46 304.293C1489.33 294.308 1492.19 284.32 1495.05 274.332C1495.34 273.32 1495.63 272.308 1495.92 271.265C1502.13 249.588 1508.26 227.892 1514.38 206.188C1514.61 205.359 1514.84 204.531 1515.08 203.678C1515.77 201.234 1516.46 198.791 1517.15 196.348C1517.36 195.568 1517.58 194.787 1517.81 193.983C1518.83 190.374 1519.84 186.765 1520.86 183.155C1521.21 181.885 1521.57 180.614 1521.94 179.306C1522.24 178.226 1522.55 177.145 1522.86 176.033C1524.56 170.019 1526.28 164.01 1528 158ZM1696 187C1697 189 1697 189 1697 189L1696 187Z" fill="white"/>
<path d="M189 327C200.469 326.953 211.939 326.918 223.408 326.897C228.739 326.886 234.069 326.873 239.399 326.85C273.434 326.706 307.3 327.398 341.188 330.813C342.472 330.939 342.472 330.939 343.782 331.068C433.383 339.94 511.325 364.218 592.233 418.804C593.83 419.885 595.429 420.964 597.028 422.043C607.757 429.283 618.301 436.754 628.762 444.375C631.012 446.009 633.27 447.631 635.531 449.25C645.842 456.639 655.964 464.243 666 472C667.886 473.456 669.772 474.911 671.659 476.365C673.261 477.6 674.861 478.837 676.461 480.075C678.264 481.442 680.117 482.745 682 484C678.821 493.392 669.224 498.789 660.809 503.235C644.281 511.308 626.35 510.414 609.207 504.746C600.67 501.649 593.328 497.346 586 492C584.63 491.018 583.258 490.036 581.887 489.055C578.03 486.289 574.189 483.502 570.351 480.71C566.551 477.947 562.745 475.191 558.938 472.438C558.193 471.899 557.448 471.361 556.681 470.806C551.644 467.171 546.581 463.575 541.5 460C531.861 453.219 522.315 446.311 512.778 439.387C481.984 417.031 450.775 394.687 417 377C415.672 376.299 415.672 376.299 414.318 375.583C366.655 350.698 317.576 345.259 264.607 344.557C260.493 344.501 256.381 344.432 252.268 344.36C236.464 344.068 236.464 344.068 220.658 344.019C218.403 344.031 216.149 344.026 213.894 344.014C211.396 344.005 208.898 344.03 206.401 344.096C199.033 344.02 199.033 344.02 196.007 341.033C194.453 338.748 193.201 336.485 192 334C191.381 333.031 190.762 332.062 190.125 331.063C189 329 189 329 189 327Z" fill="white"/>
<path d="M797.383 158.586C800 159 800 159 801.992 160.977C802.614 161.851 803.235 162.725 803.875 163.625C812.776 175.333 823.531 179.796 838 182C841.655 182.253 845.29 182.258 848.953 182.23C849.99 182.23 851.026 182.23 852.094 182.23C855.48 182.226 858.865 182.207 862.25 182.188C864.635 182.181 867.02 182.174 869.405 182.168C884.358 182.113 899.302 181.869 914.25 181.5C929.715 181.121 945.177 180.839 960.646 180.768C962.819 180.756 964.993 180.739 967.166 180.717C970.182 180.687 973.198 180.677 976.215 180.672C977.104 180.66 977.994 180.647 978.91 180.635C985.563 180.658 989.878 182.142 995.625 185.562C1002.25 192.359 1003.95 200.845 1005 210C1006.84 210.056 1006.84 210.056 1008.71 210.113C1067.39 212.22 1067.39 212.22 1082.96 228.645C1091.23 238.186 1093.53 247.808 1093.3 260.348C1092.9 265.185 1091.78 269.497 1090 274C1086.68 274.393 1085.39 274.307 1082.71 272.207C1081.55 271.022 1081.55 271.022 1080.38 269.812C1067.67 257.732 1053.37 258.43 1036.82 258.768C1014.19 259.423 992.338 265.778 972.753 277C954.431 287.448 954.431 287.448 944.434 285.5C936.684 283.154 930.595 278.393 924.198 273.613C919.822 270.401 915.339 267.339 910.875 264.25C908.88 262.865 906.885 261.48 904.891 260.094C903.905 259.409 902.92 258.725 901.904 258.02C894.255 252.701 886.626 247.353 879 242C878.266 241.485 877.532 240.97 876.775 240.439C868.089 234.339 859.462 228.167 850.875 221.928C845.441 217.997 839.928 214.198 834.375 210.438C826.344 204.993 818.533 199.304 810.841 193.392C809.536 192.405 808.215 191.441 806.884 190.491C799.036 184.849 794.592 177.302 792 168C792.414 159.449 792.414 159.449 797.383 158.586ZM948 207C951.382 210.443 954.834 213.734 958.5 216.875C959.418 217.677 960.336 218.479 961.281 219.305C963.808 221.273 963.808 221.273 966.38 220.721C968.911 220.024 971.232 219.186 973.645 218.152C974.906 217.616 974.906 217.616 976.193 217.068C977.058 216.695 977.922 216.322 978.812 215.938C979.696 215.56 980.58 215.183 981.49 214.795C983.662 213.868 985.832 212.936 988 212C987.505 211.01 987.505 211.01 987 210C983.91 209.431 983.91 209.431 980.148 209.148C979.456 209.085 978.764 209.021 978.051 208.955C976.58 208.822 975.109 208.692 973.637 208.567C971.404 208.377 969.173 208.174 966.941 207.969C960.612 207.401 954.361 206.923 948 207Z" fill="white"/>
<path d="M1400.15 155.922C1419.49 155.291 1446.23 154.822 1463 166C1460.54 173.919 1457.33 181.42 1454 189C1450.31 188.36 1446.8 187.354 1443.23 186.235C1413.37 176.972 1380.34 178.565 1352.29 192.847C1328.04 205.789 1310.99 227.776 1303 253.933C1297.14 276.481 1296.99 300.269 1308.25 321.219C1317.8 336.404 1332.69 343.664 1349.69 347.812C1366.04 350.781 1383.93 350.314 1400 346C1401.02 345.774 1402.03 345.549 1403.08 345.317C1406.21 344.287 1406.21 344.287 1407.21 341.406C1407.43 340.309 1407.65 339.212 1407.87 338.081C1408.13 336.84 1408.39 335.599 1408.66 334.32C1408.92 332.961 1409.17 331.602 1409.43 330.242C1409.71 328.854 1409.99 327.467 1410.28 326.08C1411.02 322.432 1411.73 318.778 1412.44 315.122C1413.29 310.735 1414.18 306.356 1415.07 301.976C1416.41 295.323 1417.7 288.662 1419 282C1403.82 282 1388.64 282 1373 282C1374 272 1374 272 1377 260C1402.08 260 1427.16 260 1453 260C1447.2 291.323 1447.2 291.323 1444.3 305.246C1443.98 306.812 1443.65 308.378 1443.33 309.944C1442.66 313.156 1441.99 316.368 1441.32 319.579C1440.47 323.687 1439.62 327.797 1438.77 331.907C1438.11 335.111 1437.45 338.313 1436.78 341.515C1436.46 343.032 1436.15 344.55 1435.84 346.068C1435.4 348.168 1434.97 350.267 1434.52 352.365C1434.28 353.554 1434.03 354.742 1433.78 355.967C1433.1 358.605 1432.43 360.692 1431 363C1429.23 363.941 1429.23 363.941 1427.05 364.562C1426.24 364.8 1425.42 365.038 1424.58 365.282C1423.24 365.637 1423.24 365.637 1421.87 366C1420.94 366.254 1420.01 366.508 1419.05 366.77C1382.81 376.285 1339.3 379.478 1305.59 360.035C1285.95 347.101 1273.28 328.638 1268.12 305.625C1262.15 272.563 1270.85 238.258 1289.8 210.871C1293.85 205.575 1298.38 200.798 1303 196C1303.68 195.23 1304.37 194.461 1305.07 193.668C1326.68 170.146 1363.57 157.856 1394.77 156.094C1396.56 156.042 1398.36 155.987 1400.15 155.922Z" fill="white"/>
<path d="M1786 158C1824.94 158 1863.88 158 1904 158C1903 169 1903 169 1900 182C1870.63 182 1841.26 182 1811 182C1810.34 185.96 1809.68 189.92 1809 194C1808.58 196.202 1808.14 198.401 1807.67 200.595C1807.43 201.751 1807.18 202.906 1806.93 204.097C1806.68 205.267 1806.44 206.436 1806.18 207.641C1805.95 208.749 1805.71 209.857 1805.47 211C1804.61 215.084 1803.74 219.167 1802.88 223.25C1800.94 232.408 1799 241.565 1797 251C1823.73 251.33 1850.46 251.66 1878 252C1877.34 257.292 1876.61 262.259 1875.5 267.438C1875.24 268.653 1874.98 269.869 1874.72 271.121C1874 274 1874 274 1873 275C1870.48 275.125 1867.98 275.186 1865.45 275.205C1864.66 275.215 1863.87 275.225 1863.06 275.235C1860.43 275.267 1857.81 275.292 1855.18 275.316C1853.37 275.337 1851.55 275.358 1849.74 275.379C1844.95 275.435 1840.17 275.484 1835.38 275.532C1830.5 275.582 1825.62 275.638 1820.74 275.693C1811.16 275.801 1801.58 275.902 1792 276C1791.76 277.131 1791.53 278.262 1791.29 279.428C1789.06 290.081 1786.84 300.734 1784.62 311.388C1783.48 316.865 1782.33 322.342 1781.19 327.819C1780.09 333.103 1778.99 338.388 1777.89 343.672C1777.47 345.689 1777.04 347.707 1776.62 349.724C1776.04 352.547 1775.45 355.37 1774.86 358.192C1774.68 359.029 1774.51 359.865 1774.33 360.727C1774.17 361.499 1774.01 362.27 1773.84 363.064C1773.7 363.732 1773.56 364.399 1773.42 365.087C1772.99 367.067 1772.49 369.033 1772 371C1762.1 371 1752.2 371 1742 371C1745.39 353.187 1748.92 335.413 1752.6 317.656C1753.31 314.221 1754.01 310.785 1754.72 307.349C1755.92 301.559 1757.11 295.77 1758.31 289.981C1759.95 282.02 1761.6 274.059 1763.24 266.097C1765.99 252.774 1768.74 239.451 1771.49 226.129C1771.77 224.774 1772.05 223.418 1772.33 222.063C1772.47 221.396 1772.61 220.729 1772.75 220.041C1773.86 214.68 1774.97 209.318 1776.07 203.956C1777.24 198.305 1778.41 192.655 1779.58 187.004C1780.06 184.679 1780.54 182.354 1781.02 180.029C1781.67 176.861 1782.33 173.693 1782.98 170.525C1783.18 169.594 1783.37 168.664 1783.56 167.706C1783.74 166.859 1783.92 166.012 1784.1 165.14C1784.25 164.407 1784.4 163.675 1784.56 162.921C1785 161 1785 161 1786 158Z" fill="white"/>
<path d="M1963 214C1971.25 214 1979.5 214 1988 214C1992.5 225.247 1992.5 225.247 1994.42 230.97C1994.63 231.596 1994.84 232.222 1995.06 232.867C1995.75 234.909 1996.43 236.953 1997.11 238.996C1997.6 240.457 1998.1 241.918 1998.59 243.378C1999.63 246.467 2000.67 249.555 2001.7 252.644C2004.41 260.697 2007.12 268.745 2009.84 276.793C2010.1 277.588 2010.37 278.382 2010.65 279.201C2015.16 292.579 2019.76 305.928 2024.44 319.25C2028.5 330.833 2032.54 342.421 2036.44 354.062C2036.81 355.171 2037.18 356.279 2037.57 357.421C2037.89 358.407 2038.22 359.394 2038.56 360.41C2038.84 361.257 2039.12 362.104 2039.41 362.977C2040 365 2040 365 2040 367C2032.74 367 2025.48 367 2018 367C2015.53 360.837 2013.14 354.738 2010.98 348.473C2010.72 347.717 2010.46 346.961 2010.19 346.183C2009.65 344.608 2009.11 343.033 2008.57 341.457C2007.74 339.042 2006.91 336.629 2006.07 334.217C2005.54 332.677 2005.01 331.138 2004.48 329.598C2004.11 328.52 2004.11 328.52 2003.73 327.42C2002.73 324.484 2002 322.125 2002 319C1984.51 319 1967.02 319 1949 319C1948.01 322.63 1947.02 326.26 1946 330C1945.06 332.983 1944.11 335.951 1943.12 338.914C1942.73 340.086 1942.73 340.086 1942.33 341.281C1941.79 342.906 1941.25 344.531 1940.7 346.156C1939.87 348.653 1939.04 351.153 1938.21 353.652C1937.68 355.24 1937.15 356.827 1936.62 358.414C1936.37 359.162 1936.12 359.91 1935.87 360.68C1934.12 365.885 1934.12 365.885 1933 367C1931.44 367.087 1929.87 367.107 1928.31 367.098C1927.36 367.094 1926.42 367.091 1925.45 367.088C1924.45 367.08 1923.46 367.071 1922.44 367.062C1921.44 367.058 1920.44 367.053 1919.42 367.049C1916.94 367.037 1914.47 367.02 1912 367C1913.49 359.507 1915.75 352.431 1918.23 345.211C1918.65 343.975 1919.07 342.739 1919.5 341.465C1920.63 338.126 1921.77 334.788 1922.92 331.451C1924.11 327.957 1925.3 324.46 1926.49 320.964C1928.41 315.312 1930.34 309.662 1932.27 304.012C1934.69 296.905 1937.11 289.795 1939.53 282.684C1947.31 259.775 1955.14 236.882 1963 214ZM1975 235C1973.05 240.76 1971.21 246.542 1969.45 252.364C1964.3 269.361 1958.66 286.166 1953 303C1967.52 303 1982.04 303 1997 303C1995.09 295.982 1993.13 289.129 1990.79 282.266C1990.18 280.456 1989.57 278.646 1988.96 276.836C1988.01 274.047 1987.07 271.259 1986.12 268.472C1982.36 257.395 1978.81 246.36 1976 235C1975.67 235 1975.34 235 1975 235Z" fill="white"/>
<path d="M2407 214C2415.25 214 2423.5 214 2432 214C2442.33 243.286 2452.34 272.676 2462.26 302.102C2463.28 305.129 2464.3 308.157 2465.32 311.184C2465.57 311.92 2465.82 312.656 2466.07 313.414C2470.87 327.629 2475.71 341.828 2480.6 356.011C2480.84 356.708 2481.08 357.405 2481.32 358.123C2481.94 359.924 2482.57 361.725 2483.19 363.525C2484 366 2484 366 2484 367C2476.41 367 2468.82 367 2461 367C2458.86 360.648 2456.72 354.294 2454.59 347.939C2453.87 345.776 2453.14 343.614 2452.41 341.452C2451.36 338.349 2450.32 335.243 2449.28 332.137C2448.95 331.168 2448.63 330.199 2448.29 329.201C2447.99 328.3 2447.69 327.399 2447.38 326.471C2447.11 325.679 2446.84 324.886 2446.57 324.069C2446 322 2446 322 2446 319C2428.51 319.33 2411.02 319.66 2393 320C2388.11 334.719 2388.11 334.719 2383.22 349.439C2382.6 351.28 2381.99 353.12 2381.38 354.961C2380.9 356.403 2380.9 356.403 2380.41 357.874C2380.11 358.788 2379.8 359.701 2379.49 360.642C2379.09 361.835 2379.09 361.835 2378.69 363.051C2378 365 2378 365 2377 367C2369.74 367 2362.48 367 2355 367C2362.86 343.363 2370.77 319.741 2378.73 296.137C2379.87 292.756 2381.01 289.375 2382.14 285.993C2390.24 261.927 2398.53 237.936 2407 214ZM2418 235C2417.86 235.537 2417.72 236.075 2417.58 236.628C2413.01 254.09 2407.4 271.147 2401.62 288.242C2401.32 289.144 2401.02 290.045 2400.7 290.974C2400.12 292.691 2399.54 294.407 2398.96 296.122C2397.6 299.491 2397.6 299.491 2397 303C2411.52 303 2426.04 303 2441 303C2439.02 296.407 2436.99 289.876 2434.79 283.363C2434.17 281.55 2433.56 279.737 2432.96 277.924C2432.01 275.124 2431.07 272.325 2430.12 269.527C2426.66 259.298 2423.34 249.137 2420.82 238.63C2420.55 237.762 2420.28 236.894 2420 236C2419.34 235.67 2418.68 235.34 2418 235Z" fill="white"/>
<path d="M2321.57 264.164C2332.53 272.444 2339.34 284.107 2341.7 297.697C2343.98 315.333 2342.6 334.135 2332 349C2321.04 362.462 2307.13 368.52 2290.02 370.312C2276.92 370.879 2264.25 367.157 2254 359C2253.21 358.376 2252.42 357.752 2251.61 357.109C2241.91 348.467 2235.81 335.179 2234.78 322.28C2234 303.389 2235.55 286.584 2248.1 271.468C2267.06 251.374 2298.91 248.596 2321.57 264.164ZM2265 281C2255.99 291.738 2254.89 306.374 2255.78 319.789C2256.84 330.343 2261.28 339.493 2268.91 346.843C2274.98 351.773 2282.08 354.634 2289.96 354.289C2300.44 352.804 2307.74 347.299 2314 339C2321.26 327.894 2322.54 313.974 2320.34 301.164C2317.75 290.139 2313.49 280.817 2304.09 274.121C2290.75 266.965 2275.07 270.198 2265 281Z" fill="white"/>
<path d="M2126.25 260.32C2135.02 266.398 2140.26 274.117 2144 284C2144.32 284.795 2144.64 285.59 2144.97 286.41C2148.37 296.389 2147 304.831 2147 316C2121.59 316 2096.18 316 2070 316C2072.94 330.689 2074.75 339.687 2087 348C2100.35 355.169 2116.82 353.008 2130.78 348.875C2134 348 2134 348 2138 348C2138.51 349.748 2139 351.498 2139.5 353.25C2139.78 354.224 2140.06 355.199 2140.34 356.203C2141 359 2141 359 2141 363C2122.16 370.377 2100.11 373.24 2080.75 365.875C2066.73 359.403 2058.51 350.235 2053 335.914C2046.98 318.371 2049.1 298.527 2056.55 281.75C2058.86 277.36 2061.71 273.693 2065 270C2065.52 269.373 2066.04 268.747 2066.58 268.101C2080.57 252.508 2108.58 249.949 2126.25 260.32ZM2079 280C2078.15 280.99 2077.31 281.98 2076.44 283C2073.15 287.679 2070 295.223 2070 301C2088.81 301 2107.62 301 2127 301C2127 291.091 2125.14 283.188 2118 276C2105.6 266.396 2089.23 267.725 2079 280Z" fill="white"/>
<path d="M2708.37 261.75C2717.93 269.718 2721.49 279.869 2723 292C2723.1 294.2 2723.16 296.401 2723.19 298.603C2723.21 299.871 2723.22 301.14 2723.24 302.447C2723.25 303.115 2723.25 303.784 2723.26 304.472C2723.28 306.589 2723.31 308.705 2723.34 310.821C2723.4 315.318 2723.45 319.815 2723.5 324.313C2723.56 329.519 2723.62 334.726 2723.69 339.932C2723.72 342 2723.74 344.068 2723.76 346.136C2723.85 353.145 2724.13 360.043 2725 367C2721.85 367.028 2718.71 367.047 2715.56 367.063C2714.66 367.071 2713.77 367.079 2712.84 367.088C2711.56 367.093 2711.56 367.093 2710.25 367.098C2709.46 367.103 2708.67 367.108 2707.86 367.114C2706 367 2706 367 2705 366C2704.61 364.321 2704.26 362.632 2703.94 360.938C2703.67 359.559 2703.67 359.559 2703.4 358.152C2703.27 357.442 2703.14 356.732 2703 356C2702.49 356.52 2701.98 357.039 2701.45 357.574C2691.96 366.684 2681.14 370.424 2668.07 370.281C2659.93 369.536 2650.83 367.041 2645 361C2637.14 351.133 2635.83 341.277 2637 329C2638.97 319.771 2645.26 312.22 2653 307C2665.2 299.521 2680.29 296.769 2694.44 296.938C2695.53 296.944 2695.53 296.944 2696.65 296.951C2698.44 296.963 2700.22 296.981 2702 297C2700.93 285.528 2700.93 285.528 2695 276C2687.56 270.852 2679.45 270.126 2670.69 271.531C2664.31 272.797 2658.54 274.284 2652.77 277.328C2651 278 2651 278 2648 277C2646.83 274.059 2646.83 274.059 2645.81 270.438C2645.47 269.24 2645.12 268.043 2644.77 266.809C2644.52 265.882 2644.26 264.955 2644 264C2662.52 253.37 2689.79 249.082 2708.37 261.75ZM2663 321C2659.4 325.011 2657.22 329.442 2656.87 334.856C2657.17 339.793 2658.19 344.772 2661.36 348.676C2666.61 353.27 2671.52 354.468 2678.31 354.316C2685.54 353.466 2691.98 350.255 2697 345C2700.82 339.202 2703.14 334.234 2703.1 327.234C2703.09 326.345 2703.09 325.456 2703.09 324.539C2703.08 323.619 2703.07 322.698 2703.06 321.75C2703.06 320.814 2703.05 319.878 2703.05 318.914C2703.04 316.609 2703.02 314.305 2703 312C2688.61 311.568 2674.8 311.43 2663 321Z" fill="white"/>
<path d="M2564 261C2562.9 266.691 2561.46 271.746 2559 277C2558.16 276.639 2557.33 276.278 2556.46 275.906C2546.94 272.111 2536.66 269.195 2526.71 273.387C2522.61 275.831 2520.54 278.334 2519.06 282.875C2518.98 286.895 2519.67 289.76 2522 293C2526.94 297.699 2533.21 299.977 2539.44 302.438C2550.1 306.653 2561.02 312.464 2566.09 323.344C2569.24 332.56 2568.99 341.419 2565.32 350.426C2560.85 359.121 2553.56 364.593 2544.44 367.75C2528.45 372.028 2510.79 370.467 2496 363C2495 361 2495 361 2496 357.524C2496.47 356.138 2496.95 354.755 2497.44 353.375C2497.68 352.669 2497.92 351.962 2498.17 351.234C2498.78 349.487 2499.39 347.743 2500 346C2504.82 347.583 2509.57 349.313 2514.32 351.098C2522.45 353.831 2530.95 354.108 2539.02 351.035C2542.93 348.991 2545.23 346.378 2546.62 342.078C2547.57 337.017 2546.63 333.493 2544 329C2538.86 323.877 2532.86 321.557 2526.25 318.75C2515.22 313.885 2505.99 308.929 2500 298C2497.67 291.016 2497.74 280.872 2500.56 274C2501.69 271.949 2501.69 271.949 2503 270C2503.46 269.305 2503.93 268.61 2504.4 267.895C2517.92 250.285 2546.07 251.614 2564 261Z" fill="white"/>
<path d="M2226 255C2226 261.6 2226 268.2 2226 275C2222.7 275 2219.4 275 2216 275C2208.19 276.795 2202.2 280.168 2197.68 286.989C2194.34 293.337 2192.76 299.769 2192.68 306.945C2192.67 307.6 2192.66 308.254 2192.65 308.929C2192.62 311.066 2192.6 313.203 2192.59 315.34C2192.57 316.832 2192.55 318.324 2192.53 319.817C2192.48 323.724 2192.44 327.632 2192.4 331.54C2192.36 335.535 2192.31 339.53 2192.26 343.526C2192.16 351.35 2192.08 359.175 2192 367C2185.07 367 2178.14 367 2171 367C2170.67 330.7 2170.34 294.4 2170 257C2175.94 257 2181.88 257 2188 257C2189.59 260.172 2189.38 263.635 2189.56 267.125C2189.61 267.879 2189.65 268.634 2189.69 269.41C2189.8 271.274 2189.9 273.137 2190 275C2190.35 274.348 2190.7 273.696 2191.07 273.024C2195.65 264.907 2200.61 259.338 2209.31 255.68C2214.81 254.289 2220.37 254.782 2226 255Z" fill="white"/>
<path d="M2592 257C2598.93 257 2605.86 257 2613 257C2613 293.3 2613 329.6 2613 367C2606.07 367 2599.14 367 2592 367C2592 330.7 2592 294.4 2592 257Z" fill="white"/>
<path d="M2042 521C2045.3 521 2048.6 521 2052 521C2054.51 523.797 2055.85 525.741 2057.5 529C2058.42 530.651 2059.33 532.3 2060.25 533.949C2060.7 534.79 2061.15 535.631 2061.62 536.498C2063.76 540.37 2066.12 544.085 2068.5 547.812C2071.04 551.851 2073.54 555.907 2076 560C2076.33 547.13 2076.66 534.26 2077 521C2079.31 521 2081.62 521 2084 521C2084 539.15 2084 557.3 2084 576C2076 576 2076 576 2074.11 574.516C2073.66 573.768 2073.21 573.02 2072.75 572.25C2072.19 571.348 2071.63 570.445 2071.05 569.516C2070.74 568.977 2070.42 568.439 2070.1 567.885C2068.8 565.651 2067.45 563.443 2066.11 561.234C2064.04 557.833 2061.99 554.422 2059.96 551C2056.99 545.99 2054 540.995 2051 536C2050.67 549.2 2050.34 562.4 2050 576C2047.36 576 2044.72 576 2042 576C2042 557.85 2042 539.7 2042 521Z" fill="white"/>
<path d="M1806 521C1809.3 521 1812.6 521 1816 521C1818.46 523.693 1819.72 525.523 1821.31 528.688C1822.22 530.325 1823.13 531.962 1824.04 533.598C1824.51 534.469 1824.98 535.341 1825.47 536.239C1828.19 541.145 1831.21 545.87 1834.19 550.625C1836.11 553.719 1838.02 556.812 1840 560C1840.33 547.13 1840.66 534.26 1841 521C1843.31 521 1845.62 521 1848 521C1848 539.15 1848 557.3 1848 576C1840 576 1840 576 1838.11 574.516C1837.66 573.768 1837.21 573.02 1836.75 572.25C1836.19 571.348 1835.63 570.445 1835.05 569.516C1834.74 568.977 1834.42 568.439 1834.1 567.885C1832.8 565.651 1831.45 563.443 1830.11 561.234C1828.04 557.833 1825.99 554.422 1823.96 551C1820.99 545.99 1818 540.995 1815 536C1814.67 549.2 1814.34 562.4 1814 576C1811.36 576 1808.72 576 1806 576C1806 557.85 1806 539.7 1806 521Z" fill="white"/>
<path d="M1997.16 521.774C2003.55 526.025 2007.82 531.887 2009.6 539.332C2011.14 549.649 2010.28 559.463 2004.44 568.313C1999.99 573.685 1994.66 576.543 1987.75 577.407C1980.13 577.618 1973.71 577.246 1967.84 572.114C1961.01 565.024 1958.91 558.857 1958.56 549.125C1958.76 540.931 1960.77 534.535 1965.12 527.625C1973.82 519.687 1986.04 516.735 1997.16 521.774ZM1973 531C1967.29 538.62 1966.91 546.763 1968 556C1969.41 561.38 1972.59 565.498 1976.94 568.934C1980.86 570.96 1984.74 570.719 1989 570C1994.15 567.94 1997.66 563.682 2000.12 558.762C2002.24 552.102 2002.34 542.786 1999.31 536.375C1996.7 532.123 1993.82 528.607 1989 527C1982.64 526.333 1977.79 526.326 1973 531Z" fill="white"/>
<path d="M2587.16 521.774C2593.51 525.999 2597.84 531.859 2599.6 539.27C2601.14 549.711 2600.3 558.979 2594.71 568.098C2591.11 572.833 2586.77 575.561 2581 577C2571.56 578.007 2564.86 577.147 2557.31 571.313C2551.63 566.179 2549.35 559.757 2548.8 552.239C2548.64 542.684 2549.91 534.314 2556.16 526.762C2564.24 519.042 2576.91 517.128 2587.16 521.774ZM2562.31 532.875C2557.02 540.021 2557.26 547.449 2558 556C2559.53 561.483 2562.66 565.331 2567 569C2572.5 570.834 2577.95 570.852 2583.31 568.625C2589.3 562.774 2591.32 556.832 2591.62 548.5C2591.32 540.168 2589.3 534.227 2583.31 528.375C2575 524.926 2568.37 526.394 2562.31 532.875Z" fill="white"/>
<path d="M1607 525.312C1612.01 529.393 1615.06 534.609 1616 541C1616.86 550.846 1616 559.891 1609.75 567.875C1598.33 576.699 1588.18 577.666 1574 577C1572.68 576.67 1571.36 576.34 1570 576C1570 557.85 1570 539.7 1570 521C1596.09 518.101 1596.09 518.101 1607 525.312ZM1578 528C1577.91 531.102 1577.88 534.182 1577.9 537.285C1577.9 538.216 1577.91 539.146 1577.91 540.106C1577.91 543.091 1577.92 546.077 1577.94 549.062C1577.94 551.081 1577.95 553.1 1577.95 555.119C1577.96 560.079 1577.98 565.039 1578 570C1580.07 570.029 1582.15 570.049 1584.22 570.066C1585.38 570.078 1586.53 570.091 1587.72 570.103C1592.95 569.938 1596.84 568.961 1600.75 565.418C1606.03 559.603 1607.86 553.793 1608 546C1607.56 540.098 1605.89 535.722 1601.75 531.441C1596.93 527.468 1582.95 523.053 1578 528Z" fill="white"/>
<path d="M1919.39 524.512C1924.38 528.623 1927.74 533.115 1929.75 539.312C1930.72 549.717 1930.27 559.513 1923.44 567.937C1917.17 574.402 1908.99 576.828 1900.15 577.133C1898.75 577.135 1897.34 577.133 1895.94 577.125C1895.23 577.129 1894.52 577.133 1893.79 577.137C1890.29 577.13 1887.43 576.857 1884 576C1884 557.85 1884 539.7 1884 521C1909.38 518.18 1909.38 518.18 1919.39 524.512ZM1892 528C1891.91 531.102 1891.88 534.183 1891.9 537.285C1891.9 538.216 1891.91 539.147 1891.91 540.106C1891.91 543.091 1891.92 546.077 1891.94 549.062C1891.94 551.081 1891.95 553.1 1891.95 555.119C1891.96 560.079 1891.98 565.04 1892 570C1894.06 570.044 1896.12 570.075 1898.19 570.101C1899.34 570.12 1900.48 570.139 1901.67 570.159C1907.12 569.899 1911.51 568.23 1915.59 564.574C1921.1 558.395 1921.44 552.425 1921.32 544.457C1920.77 538.471 1918.83 534.825 1914.62 530.625C1909.59 527.508 1905.06 526.739 1899.19 526.812C1897.48 526.822 1897.48 526.822 1895.73 526.832C1893.09 526.692 1893.09 526.692 1892 528Z" fill="white"/>
<path d="M2514.38 524.313C2518 528.024 2518.85 530.318 2519.31 535.438C2518.74 542.01 2515.76 545.629 2511 550C2511.6 550.619 2512.2 551.238 2512.81 551.875C2515.72 556.024 2516.73 560.142 2518 565C2518.56 567.042 2519.12 569.084 2519.69 571.125C2520.13 572.75 2520.56 574.375 2521 576C2518.03 576 2515.06 576 2512 576C2511.82 575.383 2511.64 574.765 2511.45 574.129C2510.92 572.355 2510.39 570.583 2509.85 568.813C2509.31 567.026 2508.78 565.234 2508.27 563.438C2508.04 562.654 2507.8 561.87 2507.56 561.063C2507.36 560.353 2507.15 559.642 2506.94 558.91C2505.92 556.466 2505.92 556.466 2502 554C2498.7 553.67 2495.4 553.34 2492 553C2492 560.59 2492 568.18 2492 576C2489.36 576 2486.72 576 2484 576C2484 557.85 2484 539.7 2484 521C2506.4 518.201 2506.4 518.201 2514.38 524.313ZM2492 527C2492 533.27 2492 539.54 2492 546C2500.29 546.851 2500.29 546.851 2507.69 543.875C2510.29 540.643 2511.08 539.135 2511 535C2509.86 531.894 2509.06 529.718 2506.28 527.836C2503.34 526.756 2500.88 526.807 2497.75 526.875C2495.85 526.917 2493.96 526.958 2492 527Z" fill="white"/>
<path d="M2448 522C2447.67 524.31 2447.34 526.62 2447 529C2445.87 528.835 2444.73 528.67 2443.56 528.5C2435.87 527.578 2428.99 527.175 2422 531C2417.23 534.926 2414.35 538.744 2413.68 544.992C2413.44 551.828 2413.77 557.436 2418 563C2422.07 566.97 2425.85 568.882 2431.55 569.195C2432.79 569.172 2434.03 569.149 2435.31 569.125C2437.52 569.084 2439.73 569.043 2442 569C2442 563.72 2442 558.44 2442 553C2438.37 553 2434.74 553 2431 553C2431 551.02 2431 549.04 2431 547C2437.27 547 2443.54 547 2450 547C2450 555.91 2450 564.82 2450 574C2440.26 577.897 2429.35 578.552 2419.32 575.102C2412.18 571.713 2407.71 566.327 2405 559C2402.48 551.01 2403.45 541.504 2407 534C2411.97 526.567 2417.79 522.483 2426.44 520.418C2433.86 519.207 2440.84 519.839 2448 522Z" fill="white"/>
<path d="M1316 522C1315.67 523.98 1315.34 525.96 1315 528C1311.85 529.013 1310.15 528.794 1307 528C1300.63 527.436 1294.58 527.613 1289 531C1283.2 535.986 1281.37 541.26 1280.63 548.812C1280.82 554.572 1282.58 560.545 1286.68 564.711C1293.95 570.119 1301.18 569.081 1310 569C1310 563.72 1310 558.44 1310 553C1306.37 553 1302.74 553 1299 553C1299 551.02 1299 549.04 1299 547C1305.27 547 1311.54 547 1318 547C1318 555.91 1318 564.82 1318 574C1304.44 577.698 1294.22 578.967 1281.75 572.25C1276.6 568.033 1273.74 563.435 1272 557C1271.03 546.082 1272.07 538.007 1278.13 528.75C1288.44 518.883 1302.84 517.951 1316 522Z" fill="white"/>
<path d="M1454 523C1457.76 526.135 1459.72 528.309 1460.24 533.269C1460.41 539.073 1459.99 542.456 1456 547C1453.75 548.875 1453.75 548.875 1452 550C1452.77 550.799 1453.53 551.598 1454.32 552.422C1457.56 556.308 1458.62 560.409 1459.81 565.25C1460.14 566.472 1460.14 566.472 1460.47 567.719C1462 573.598 1462 573.598 1462 576C1459.03 576 1456.06 576 1453 576C1452.69 574.747 1452.37 573.494 1452.05 572.203C1451.62 570.552 1451.18 568.901 1450.75 567.25C1450.55 566.425 1450.34 565.6 1450.13 564.75C1448.55 558.393 1448.55 558.393 1444 554C1440.7 553.67 1437.4 553.34 1434 553C1434 560.59 1434 568.18 1434 576C1431.36 576 1428.72 576 1426 576C1426 557.85 1426 539.7 1426 521C1435.52 519.64 1445.15 518.423 1454 523ZM1434 527C1434 533.27 1434 539.54 1434 546C1442.63 546.712 1442.63 546.712 1450 543C1452.32 539.795 1452.55 536.878 1452 533C1449.83 530.427 1448.02 528.51 1445 527C1441.33 526.862 1437.67 526.957 1434 527Z" fill="white"/>
<path d="M1493 521C1495.64 521 1498.28 521 1501 521C1501.02 521.983 1501.04 522.966 1501.06 523.978C1501.14 527.663 1501.23 531.348 1501.32 535.032C1501.36 536.619 1501.39 538.207 1501.42 539.795C1501.18 554.073 1501.18 554.073 1506.06 567.062C1510.03 569.68 1513.36 569.788 1518 569C1521.02 568.058 1521.87 567.2 1523.59 564.499C1525.37 560.089 1525.48 556.374 1525.51 551.664C1525.53 550.785 1525.55 549.905 1525.57 548.999C1525.62 546.208 1525.65 543.417 1525.69 540.625C1525.72 538.725 1525.76 536.825 1525.79 534.926C1525.88 530.284 1525.94 525.642 1526 521C1528.97 521 1531.94 521 1535 521C1535.05 525.801 1535.09 530.603 1535.11 535.404C1535.12 537.034 1535.13 538.663 1535.15 540.292C1535.4 564.41 1535.4 564.41 1528.68 572.371C1524.02 576.887 1519.68 577.191 1513.44 577.375C1506.54 577.178 1502.57 575.835 1497.75 570.875C1492.52 565.225 1492.71 556.293 1492.8 549.027C1492.81 548.219 1492.81 547.41 1492.81 546.577C1492.82 544.031 1492.85 541.484 1492.88 538.938C1492.89 537.196 1492.89 535.454 1492.9 533.713C1492.92 529.475 1492.96 525.238 1493 521Z" fill="white"/>
<path d="M2632 521C2634.64 521 2637.28 521 2640 521C2640.02 521.983 2640.04 522.966 2640.06 523.978C2640.14 527.663 2640.23 531.348 2640.32 535.032C2640.36 536.619 2640.39 538.207 2640.42 539.795C2640.18 554.073 2640.18 554.073 2645.06 567.062C2649.03 569.68 2652.36 569.788 2657 569C2660.02 568.058 2660.87 567.2 2662.59 564.499C2664.37 560.089 2664.48 556.374 2664.51 551.664C2664.53 550.785 2664.55 549.905 2664.57 548.999C2664.62 546.208 2664.65 543.417 2664.69 540.625C2664.72 538.725 2664.76 536.825 2664.79 534.926C2664.88 530.284 2664.94 525.642 2665 521C2667.97 521 2670.94 521 2674 521C2674.05 525.801 2674.09 530.603 2674.11 535.404C2674.12 537.034 2674.13 538.663 2674.15 540.292C2674.4 564.41 2674.4 564.41 2667.68 572.371C2663.02 576.887 2658.68 577.191 2652.44 577.375C2645.84 577.201 2642.26 575.95 2637.25 571.625C2631.74 565.193 2631.85 557.401 2631.9 549.32C2631.9 548.508 2631.91 547.695 2631.91 546.857C2631.91 544.28 2631.92 541.702 2631.94 539.125C2631.94 537.37 2631.95 535.615 2631.95 533.859C2631.96 529.573 2631.98 525.286 2632 521Z" fill="white"/>
<path d="M2306 521C2309.3 521 2312.6 521 2316 521C2318.77 527.795 2321.32 534.617 2323.67 541.566C2324 542.527 2324.33 543.487 2324.66 544.476C2325.35 546.483 2326.03 548.49 2326.71 550.498C2327.76 553.587 2328.81 556.673 2329.86 559.76C2330.53 561.716 2331.19 563.672 2331.86 565.629C2332.33 567.018 2332.33 567.018 2332.82 568.435C2333.1 569.283 2333.39 570.132 2333.69 571.006C2334.07 572.13 2334.07 572.13 2334.46 573.277C2335 575 2335 575 2335 576C2332.03 576 2329.06 576 2326 576C2324.02 570.72 2322.04 565.44 2320 560C2314.06 560 2308.12 560 2302 560C2300.35 565.28 2298.7 570.56 2297 576C2294.03 576 2291.06 576 2288 576C2289.92 568.661 2292.1 561.47 2294.57 554.301C2294.9 553.34 2295.23 552.379 2295.57 551.388C2296.61 548.362 2297.65 545.337 2298.69 542.312C2299.4 540.243 2300.11 538.173 2300.81 536.104C2302.54 531.068 2304.27 526.033 2306 521ZM2311 531C2306.09 541.669 2306.09 541.669 2304 553C2308.62 553 2313.24 553 2318 553C2316.48 545.504 2314.32 538.286 2312 531C2311.67 531 2311.34 531 2311 531Z" fill="white"/>
<path d="M1661 521C1664.3 521 1667.6 521 1671 521C1675.4 530.895 1678.89 541.066 1682.36 551.312C1683.32 554.156 1684.29 556.996 1685.27 559.836C1685.88 561.643 1686.5 563.45 1687.11 565.258C1687.55 566.531 1687.55 566.531 1687.99 567.83C1690 573.769 1690 573.769 1690 576C1687.03 576 1684.06 576 1681 576C1680.16 573.731 1679.33 571.46 1678.5 569.188C1678.26 568.545 1678.02 567.902 1677.78 567.24C1676.73 564.351 1676 562.099 1676 559C1669.73 559 1663.46 559 1657 559C1656.55 560.691 1656.09 562.383 1655.62 564.125C1654.53 568.13 1653.38 572.082 1652 576C1649.03 576 1646.06 576 1643 576C1645.74 565.121 1649.47 554.596 1653.12 544C1653.78 542.1 1654.43 540.201 1655.08 538.301C1656.51 534.147 1657.94 529.995 1659.37 525.843C1659.92 524.232 1660.46 522.616 1661 521ZM1666 531C1661.22 541.751 1661.22 541.751 1659 553C1663.95 553 1668.9 553 1674 553C1671.69 545.74 1669.38 538.48 1667 531C1666.67 531 1666.34 531 1666 531Z" fill="white"/>
<path d="M1368.29 520.902C1369.66 520.92 1369.66 520.92 1371.06 520.938C1371.98 520.947 1372.9 520.956 1373.85 520.965C1374.56 520.976 1375.27 520.988 1376 521C1376.2 521.578 1376.39 522.155 1376.59 522.751C1378.64 528.77 1380.68 534.788 1382.73 540.806C1383.49 543.051 1384.25 545.297 1385.01 547.542C1386.11 550.772 1387.21 554.001 1388.3 557.23C1388.64 558.233 1388.98 559.235 1389.33 560.268C1389.81 561.679 1389.81 561.679 1390.3 563.118C1390.58 563.942 1390.86 564.766 1391.15 565.614C1391.75 567.301 1392.41 568.968 1393.11 570.618C1394 573 1394 573 1394 576C1391.03 576 1388.06 576 1385 576C1384.16 573.543 1383.33 571.084 1382.5 568.625C1382.26 567.926 1382.02 567.228 1381.78 566.508C1380 561.227 1380 561.227 1380 559C1373.73 559 1367.46 559 1361 559C1360.34 561.97 1359.68 564.94 1359 568C1358.11 570.734 1357.07 573.329 1356 576C1353.03 576 1350.06 576 1347 576C1349.4 568.793 1351.8 561.586 1354.21 554.379C1354.47 553.596 1354.73 552.814 1355 552.008C1355.53 550.422 1356.05 548.837 1356.58 547.252C1357.97 543.112 1359.34 538.97 1360.7 534.823C1360.98 533.992 1361.25 533.16 1361.53 532.303C1362.06 530.708 1362.58 529.112 1363.1 527.515C1365.24 521.032 1365.24 521.032 1368.29 520.902ZM1370 530C1367.69 537.59 1365.38 545.18 1363 553C1367.95 553 1372.9 553 1378 553C1375.95 545.221 1373.62 537.607 1371 530C1370.67 530 1370.34 530 1370 530Z" fill="white"/>
<path d="M2120 521C2129.9 521 2139.8 521 2150 521C2150 523.31 2150 525.62 2150 528C2142.74 528 2135.48 528 2128 528C2128 533.28 2128 538.56 2128 544C2134.93 544 2141.86 544 2149 544C2149 546.31 2149 548.62 2149 551C2142.07 551 2135.14 551 2128 551C2128 556.94 2128 562.88 2128 569C2135.92 569 2143.84 569 2152 569C2152 571.31 2152 573.62 2152 576C2141.44 576 2130.88 576 2120 576C2120 557.85 2120 539.7 2120 521Z" fill="white"/>
<path d="M2737 523C2740.62 525.923 2742.84 528.475 2744 533C2744.63 539.363 2743.61 543.688 2740 549C2735.74 553.375 2731.18 554.872 2725.11 555.117C2722.4 555.124 2719.7 555.067 2717 555C2717 561.93 2717 568.86 2717 576C2714.36 576 2711.72 576 2709 576C2709 557.85 2709 539.7 2709 521C2728.27 518.591 2728.27 518.591 2737 523ZM2717 527C2717 533.93 2717 540.86 2717 548C2724.54 548.49 2724.54 548.49 2731.56 546.313C2734.19 543.816 2735.26 542.537 2736 539C2735.86 535.017 2735.61 532.778 2733.12 529.625C2729.57 526.905 2726.65 526.887 2722.31 526.938C2720.56 526.958 2718.81 526.979 2717 527Z" fill="white"/>
<path d="M2201.06 519.688C2202.25 519.692 2203.44 519.695 2204.66 519.699C2207.86 519.987 2210.12 520.634 2213 522C2212.67 524.31 2212.34 526.62 2212 529C2211.22 528.835 2210.43 528.67 2209.62 528.5C2206.66 528.092 2203.86 527.838 2200.88 527.75C2200.05 527.724 2199.22 527.699 2198.37 527.672C2195.43 528.079 2194.1 528.935 2192 531C2191.25 534.458 2191.25 534.458 2192 538C2196.03 541.876 2200.85 543.983 2205.92 546.18C2210.47 548.308 2212.73 550.526 2215 555C2215.98 560.533 2215.72 565.478 2213.31 570.563C2209.07 575.032 2205.11 576.786 2199.05 577.203C2192.26 577.3 2187.16 576.9 2181 574C2181.66 571.69 2182.32 569.38 2183 567C2185.76 567.523 2188.33 568.109 2191 569C2195.81 569.498 2199.75 569.626 2204.12 567.438C2206.28 565.038 2206.28 565.038 2206.56 561.5C2205.9 557.352 2205.17 556.634 2202 554C2199.11 552.49 2196.21 551.126 2193.22 549.821C2188.41 547.578 2185.9 545.347 2183 541C2181.98 536.373 2181.91 531.369 2183.92 526.996C2188.37 521.233 2194.07 519.589 2201.06 519.688Z" fill="white"/>
<path d="M2607 214C2610.75 216.015 2612.64 217.454 2615 221C2615.76 226.588 2616.11 231.418 2612.81 236.125C2608 239.336 2604.93 240.544 2599 239.613C2595.48 238.535 2593.56 236.62 2591 234C2589.34 229.018 2589.2 224.04 2591.12 219.125C2595.39 214.286 2600.78 212.86 2607 214Z" fill="white"/>
<path d="M2248 521C2250.64 521 2253.28 521 2256 521C2256 539.15 2256 557.3 2256 576C2253.36 576 2250.72 576 2248 576C2248 557.85 2248 539.7 2248 521Z" fill="white"/>
<path d="M1763 521C1765.64 521 1768.28 521 1771 521C1771 539.15 1771 557.3 1771 576C1768.36 576 1765.72 576 1763 576C1763 557.85 1763 539.7 1763 521Z" fill="white"/>
</g>
<defs>
<clipPath id="clip0_33_123">
<rect width="2744" height="577" fill="white"/>
</clipPath>
</defs>
</svg>
